<svg xmlns="http://www.w3.org/2000/svg" version="1.1" xmlns:xlink="http://www.w3.org/1999/xlink" xmlns:svgjs="http://svgjs.dev/svgjs" viewBox="0 0 800 800" preserveAspectRatio="xMidYMid slice"><defs><pattern id="pppixelate-pattern" width="20" height="20" patternUnits="userSpaceOnUse" patternTransform="translate(35 56) scale(40) rotate(0)" shape-rendering="crispEdges">
    <rect width="1" height="1" x="14" y="0" fill="hsla(30, 98%, 24%, 1.00)"></rect><rect width="1" height="1" x="15" y="0" fill="hsla(30, 98%, 24%, 1.00)"></rect><rect width="1" height="1" x="16" y="0" fill="hsla(30, 98%, 24%, 1.00)"></rect><rect width="1" height="1" x="11" y="1" fill="hsla(30, 98%, 24%, 1.00)"></rect><rect width="1" height="1" x="12" y="1" fill="hsla(30, 98%, 24%, 1.00)"></rect><rect width="1" height="1" x="13" y="1" fill="hsla(30, 98%, 24%, 1.00)"></rect><rect width="1" height="1" x="14" y="1" fill="hsla(30, 98%, 36%, 1.00)"></rect><rect width="1" height="1" x="15" y="1" fill="hsla(30, 95%, 30%, 1.00)"></rect><rect width="1" height="1" x="16" y="1" fill="hsla(30, 98%, 36%, 1.00)"></rect><rect width="1" height="1" x="17" y="1" fill="hsla(30, 98%, 24%, 1.00)"></rect><rect width="1" height="1" x="9" y="2" fill="hsla(30, 98%, 24%, 1.00)"></rect><rect width="1" height="1" x="10" y="2" fill="hsla(30, 98%, 24%, 1.00)"></rect><rect width="1" height="1" x="11" y="2" fill="hsla(30, 98%, 36%, 1.00)"></rect><rect width="1" height="1" x="12" y="2" fill="hsla(30, 95%, 30%, 1.00)"></rect><rect width="1" height="1" x="13" y="2" fill="hsla(30, 98%, 36%, 1.00)"></rect><rect width="1" height="1" x="14" y="2" fill="hsla(30, 98%, 24%, 1.00)"></rect><rect width="1" height="1" x="15" y="2" fill="hsla(30, 98%, 24%, 1.00)"></rect><rect width="1" height="1" x="16" y="2" fill="hsla(30, 98%, 24%, 1.00)"></rect><rect width="1" height="1" x="7" y="3" fill="hsla(30, 98%, 24%, 1.00)"></rect><rect width="1" height="1" x="8" y="3" fill="hsla(30, 98%, 24%, 1.00)"></rect><rect width="1" height="1" x="9" y="3" fill="hsla(30, 98%, 36%, 1.00)"></rect><rect width="1" height="1" x="10" y="3" fill="hsla(30, 95%, 30%, 1.00)"></rect><rect width="1" height="1" x="11" y="3" fill="hsla(30, 98%, 24%, 1.00)"></rect><rect width="1" height="1" x="12" y="3" fill="hsla(30, 98%, 24%, 1.00)"></rect><rect width="1" height="1" x="13" y="3" fill="hsla(30, 98%, 24%, 1.00)"></rect><rect width="1" height="1" x="16" y="3" fill="hsl(0, 0%, 45%)"></rect><rect width="1" height="1" x="6" y="4" fill="hsla(30, 98%, 24%, 1.00)"></rect><rect width="1" height="1" x="7" y="4" fill="hsl(0, 0%, 60%)"></rect><rect width="1" height="1" x="8" y="4" fill="hsla(30, 92%, 42%, 1.00)"></rect><rect width="1" height="1" x="9" y="4" fill="hsla(30, 98%, 24%, 1.00)"></rect><rect width="1" height="1" x="10" y="4" fill="hsla(30, 98%, 24%, 1.00)"></rect><rect width="1" height="1" x="15" y="4" fill="hsl(0, 0%, 45%)"></rect><rect width="1" height="1" x="5" y="5" fill="hsla(30, 98%, 24%, 1.00)"></rect><rect width="1" height="1" x="6" y="5" fill="hsl(0, 0%, 60%)"></rect><rect width="1" height="1" x="7" y="5" fill="hsl(0, 0%, 75%)"></rect><rect width="1" height="1" x="8" y="5" fill="hsl(0, 0%, 60%)"></rect><rect width="1" height="1" x="14" y="5" fill="hsl(0, 0%, 45%)"></rect><rect width="1" height="1" x="4" y="6" fill="hsla(30, 98%, 24%, 1.00)"></rect><rect width="1" height="1" x="5" y="6" fill="hsl(0, 0%, 60%)"></rect><rect width="1" height="1" x="6" y="6" fill="hsl(0, 0%, 75%)"></rect><rect width="1" height="1" x="7" y="6" fill="hsl(0, 0%, 60%)"></rect><rect width="1" height="1" x="13" y="6" fill="hsl(0, 0%, 45%)"></rect><rect width="1" height="1" x="3" y="7" fill="hsla(30, 98%, 24%, 1.00)"></rect><rect width="1" height="1" x="4" y="7" fill="hsl(0, 0%, 60%)"></rect><rect width="1" height="1" x="5" y="7" fill="hsl(0, 0%, 75%)"></rect><rect width="1" height="1" x="6" y="7" fill="hsl(0, 0%, 60%)"></rect><rect width="1" height="1" x="12" y="7" fill="hsl(0, 0%, 45%)"></rect><rect width="1" height="1" x="3" y="8" fill="hsla(30, 98%, 24%, 1.00)"></rect><rect width="1" height="1" x="4" y="8" fill="hsla(30, 92%, 42%, 1.00)"></rect><rect width="1" height="1" x="5" y="8" fill="hsl(0, 0%, 60%)"></rect><rect width="1" height="1" x="11" y="8" fill="hsl(0, 0%, 45%)"></rect><rect width="1" height="1" x="2" y="9" fill="hsla(30, 98%, 24%, 1.00)"></rect><rect width="1" height="1" x="3" y="9" fill="hsla(30, 98%, 36%, 1.00)"></rect><rect width="1" height="1" x="4" y="9" fill="hsla(30, 98%, 24%, 1.00)"></rect><rect width="1" height="1" x="10" y="9" fill="hsl(0, 0%, 45%)"></rect><rect width="1" height="1" x="2" y="10" fill="hsla(30, 98%, 24%, 1.00)"></rect><rect width="1" height="1" x="3" y="10" fill="hsla(30, 95%, 30%, 1.00)"></rect><rect width="1" height="1" x="4" y="10" fill="hsla(30, 98%, 24%, 1.00)"></rect><rect width="1" height="1" x="9" y="10" fill="hsl(0, 0%, 45%)"></rect><rect width="1" height="1" x="1" y="11" fill="hsla(30, 98%, 24%, 1.00)"></rect><rect width="1" height="1" x="2" y="11" fill="hsla(30, 98%, 36%, 1.00)"></rect><rect width="1" height="1" x="3" y="11" fill="hsla(30, 98%, 24%, 1.00)"></rect><rect width="1" height="1" x="8" y="11" fill="hsl(0, 0%, 45%)"></rect><rect width="1" height="1" x="1" y="12" fill="hsla(30, 98%, 24%, 1.00)"></rect><rect width="1" height="1" x="2" y="12" fill="hsla(30, 95%, 30%, 1.00)"></rect><rect width="1" height="1" x="3" y="12" fill="hsla(30, 98%, 24%, 1.00)"></rect><rect width="1" height="1" x="7" y="12" fill="hsl(0, 0%, 45%)"></rect><rect width="1" height="1" x="1" y="13" fill="hsla(30, 98%, 24%, 1.00)"></rect><rect width="1" height="1" x="2" y="13" fill="hsla(30, 98%, 36%, 1.00)"></rect><rect width="1" height="1" x="3" y="13" fill="hsla(30, 98%, 24%, 1.00)"></rect><rect width="1" height="1" x="6" y="13" fill="hsl(0, 0%, 45%)"></rect><rect width="1" height="1" x="0" y="14" fill="hsla(30, 98%, 24%, 1.00)"></rect><rect width="1" height="1" x="1" y="14" fill="hsla(30, 98%, 36%, 1.00)"></rect><rect width="1" height="1" x="2" y="14" fill="hsla(30, 98%, 24%, 1.00)"></rect><rect width="1" height="1" x="5" y="14" fill="hsl(0, 0%, 45%)"></rect><rect width="1" height="1" x="0" y="15" fill="hsla(30, 98%, 24%, 1.00)"></rect><rect width="1" height="1" x="1" y="15" fill="hsla(30, 95%, 30%, 1.00)"></rect><rect width="1" height="1" x="2" y="15" fill="hsla(30, 98%, 24%, 1.00)"></rect><rect width="1" height="1" x="4" y="15" fill="hsl(0, 0%, 45%)"></rect><rect width="1" height="1" x="0" y="16" fill="hsla(30, 98%, 24%, 1.00)"></rect><rect width="1" height="1" x="1" y="16" fill="hsla(30, 98%, 36%, 1.00)"></rect><rect width="1" height="1" x="2" y="16" fill="hsla(30, 98%, 24%, 1.00)"></rect><rect width="1" height="1" x="3" y="16" fill="hsl(0, 0%, 45%)"></rect><rect width="1" height="1" x="1" y="17" fill="hsla(30, 98%, 24%, 1.00)"></rect>
  </pattern></defs><rect width="100%" height="100%" fill="url(#pppixelate-pattern)"></rect></svg>