<svg xmlns="http://www.w3.org/2000/svg" version="1.1" xmlns:xlink="http://www.w3.org/1999/xlink" xmlns:svgjs="http://svgjs.dev/svgjs" viewBox="0 0 800 800" preserveAspectRatio="xMidYMid slice"><defs><pattern id="pppixelate-pattern" width="20" height="20" patternUnits="userSpaceOnUse" patternTransform="translate(-2 0) scale(40) rotate(0)" shape-rendering="crispEdges">
    <rect width="1" height="1" x="8" y="0" fill="hsl(50, 98%, 50%)"></rect><rect width="1" height="1" x="9" y="0" fill="hsl(50, 98%, 50%)"></rect><rect width="1" height="1" x="10" y="0" fill="hsl(50, 98%, 50%)"></rect><rect width="1" height="1" x="11" y="0" fill="hsl(50, 98%, 50%)"></rect><rect width="1" height="1" x="12" y="0" fill="hsl(50, 98%, 50%)"></rect><rect width="1" height="1" x="13" y="0" fill="hsl(50, 98%, 50%)"></rect><rect width="1" height="1" x="14" y="0" fill="hsl(50, 98%, 50%)"></rect><rect width="1" height="1" x="6" y="1" fill="hsl(50, 98%, 50%)"></rect><rect width="1" height="1" x="7" y="1" fill="hsl(50, 98%, 50%)"></rect><rect width="1" height="1" x="8" y="1" fill="hsl(50, 98%, 50%)"></rect><rect width="1" height="1" x="9" y="1" fill="hsl(10, 75%, 40%)"></rect><rect width="1" height="1" x="10" y="1" fill="hsl(10, 75%, 40%)"></rect><rect width="1" height="1" x="11" y="1" fill="hsl(10, 75%, 40%)"></rect><rect width="1" height="1" x="12" y="1" fill="hsl(10, 75%, 40%)"></rect><rect width="1" height="1" x="13" y="1" fill="hsl(10, 75%, 40%)"></rect><rect width="1" height="1" x="14" y="1" fill="hsl(50, 98%, 50%)"></rect><rect width="1" height="1" x="4" y="2" fill="hsl(50, 98%, 50%)"></rect><rect width="1" height="1" x="5" y="2" fill="hsl(50, 98%, 50%)"></rect><rect width="1" height="1" x="6" y="2" fill="hsl(50, 98%, 50%)"></rect><rect width="1" height="1" x="7" y="2" fill="hsl(10, 75%, 40%)"></rect><rect width="1" height="1" x="8" y="2" fill="hsl(10, 75%, 40%)"></rect><rect width="1" height="1" x="9" y="2" fill="hsl(10, 75%, 40%)"></rect><rect width="1" height="1" x="10" y="2" fill="hsl(50, 98%, 50%)"></rect><rect width="1" height="1" x="11" y="2" fill="hsl(50, 98%, 50%)"></rect><rect width="1" height="1" x="12" y="2" fill="hsl(50, 98%, 50%)"></rect><rect width="1" height="1" x="13" y="2" fill="hsl(50, 98%, 50%)"></rect><rect width="1" height="1" x="14" y="2" fill="hsl(50, 98%, 50%)"></rect><rect width="1" height="1" x="15" y="2" fill="hsl(50, 98%, 50%)"></rect><rect width="1" height="1" x="5" y="3" fill="hsl(50, 98%, 50%)"></rect><rect width="1" height="1" x="6" y="3" fill="hsl(50, 98%, 50%)"></rect><rect width="1" height="1" x="7" y="3" fill="hsl(50, 98%, 50%)"></rect><rect width="1" height="1" x="8" y="3" fill="hsl(50, 98%, 50%)"></rect><rect width="1" height="1" x="9" y="3" fill="hsl(50, 98%, 50%)"></rect><rect width="1" height="1" x="10" y="3" fill="hsl(50, 98%, 50%)"></rect><rect width="1" height="1" x="11" y="3" fill="hsl(0, 0%, 15%)"></rect><rect width="1" height="1" x="12" y="3" fill="hsl(28, 100%, 71%)"></rect><rect width="1" height="1" x="14" y="3" fill="hsl(50, 98%, 50%)"></rect><rect width="1" height="1" x="15" y="3" fill="hsl(50, 98%, 50%)"></rect><rect width="1" height="1" x="8" y="4" fill="hsl(28, 100%, 71%)"></rect><rect width="1" height="1" x="9" y="4" fill="hsl(28, 100%, 71%)"></rect><rect width="1" height="1" x="10" y="4" fill="hsl(28, 100%, 71%)"></rect><rect width="1" height="1" x="11" y="4" fill="hsl(28, 100%, 71%)"></rect><rect width="1" height="1" x="12" y="4" fill="hsl(28, 100%, 71%)"></rect><rect width="1" height="1" x="4" y="5" fill="hsl(10, 75%, 40%)"></rect><rect width="1" height="1" x="5" y="5" fill="hsl(10, 75%, 40%)"></rect><rect width="1" height="1" x="6" y="5" fill="hsl(10, 75%, 40%)"></rect><rect width="1" height="1" x="7" y="5" fill="hsl(10, 75%, 40%)"></rect><rect width="1" height="1" x="8" y="5" fill="hsl(28, 100%, 71%)"></rect><rect width="1" height="1" x="9" y="5" fill="hsl(28, 100%, 71%)"></rect><rect width="1" height="1" x="10" y="5" fill="hsl(28, 100%, 71%)"></rect><rect width="1" height="1" x="11" y="5" fill="hsl(28, 100%, 71%)"></rect><rect width="1" height="1" x="12" y="5" fill="hsl(28, 100%, 71%)"></rect><rect width="1" height="1" x="13" y="5" fill="hsl(10, 75%, 40%)"></rect><rect width="1" height="1" x="14" y="5" fill="hsl(10, 75%, 40%)"></rect><rect width="1" height="1" x="15" y="5" fill="hsl(10, 75%, 40%)"></rect><rect width="1" height="1" x="4" y="6" fill="hsl(10, 75%, 40%)"></rect><rect width="1" height="1" x="5" y="6" fill="hsl(10, 75%, 40%)"></rect><rect width="1" height="1" x="6" y="6" fill="hsl(10, 75%, 40%)"></rect><rect width="1" height="1" x="7" y="6" fill="hsl(10, 75%, 40%)"></rect><rect width="1" height="1" x="8" y="6" fill="hsl(10, 75%, 40%)"></rect><rect width="1" height="1" x="9" y="6" fill="hsl(10, 75%, 40%)"></rect><rect width="1" height="1" x="10" y="6" fill="hsl(10, 75%, 40%)"></rect><rect width="1" height="1" x="11" y="6" fill="hsl(28, 100%, 71%)"></rect><rect width="1" height="1" x="12" y="6" fill="hsl(10, 75%, 40%)"></rect><rect width="1" height="1" x="13" y="6" fill="hsl(10, 75%, 40%)"></rect><rect width="1" height="1" x="14" y="6" fill="hsl(10, 75%, 40%)"></rect><rect width="1" height="1" x="15" y="6" fill="hsl(10, 75%, 40%)"></rect><rect width="1" height="1" x="16" y="6" fill="hsl(10, 75%, 40%)"></rect><rect width="1" height="1" x="3" y="7" fill="hsl(10, 75%, 40%)"></rect><rect width="1" height="1" x="4" y="7" fill="hsl(10, 75%, 40%)"></rect><rect width="1" height="1" x="5" y="7" fill="hsl(10, 75%, 40%)"></rect><rect width="1" height="1" x="6" y="7" fill="hsl(10, 75%, 40%)"></rect><rect width="1" height="1" x="7" y="7" fill="hsl(10, 75%, 40%)"></rect><rect width="1" height="1" x="8" y="7" fill="hsl(10, 75%, 40%)"></rect><rect width="1" height="1" x="9" y="7" fill="hsl(10, 75%, 40%)"></rect><rect width="1" height="1" x="10" y="7" fill="hsl(10, 75%, 40%)"></rect><rect width="1" height="1" x="11" y="7" fill="hsl(10, 75%, 40%)"></rect><rect width="1" height="1" x="12" y="7" fill="hsl(10, 75%, 40%)"></rect><rect width="1" height="1" x="13" y="7" fill="hsl(10, 75%, 40%)"></rect><rect width="1" height="1" x="14" y="7" fill="hsl(10, 75%, 40%)"></rect><rect width="1" height="1" x="15" y="7" fill="hsl(10, 75%, 40%)"></rect><rect width="1" height="1" x="16" y="7" fill="hsl(10, 75%, 40%)"></rect><rect width="1" height="1" x="3" y="8" fill="hsl(10, 75%, 40%)"></rect><rect width="1" height="1" x="4" y="8" fill="hsl(10, 75%, 40%)"></rect><rect width="1" height="1" x="5" y="8" fill="hsl(10, 75%, 40%)"></rect><rect width="1" height="1" x="6" y="8" fill="hsl(10, 75%, 40%)"></rect><rect width="1" height="1" x="7" y="8" fill="hsl(10, 75%, 40%)"></rect><rect width="1" height="1" x="8" y="8" fill="hsl(10, 75%, 40%)"></rect><rect width="1" height="1" x="9" y="8" fill="hsl(10, 75%, 40%)"></rect><rect width="1" height="1" x="10" y="8" fill="hsl(10, 75%, 40%)"></rect><rect width="1" height="1" x="11" y="8" fill="hsl(10, 75%, 40%)"></rect><rect width="1" height="1" x="12" y="8" fill="hsl(10, 75%, 40%)"></rect><rect width="1" height="1" x="13" y="8" fill="hsl(10, 75%, 40%)"></rect><rect width="1" height="1" x="14" y="8" fill="hsl(10, 75%, 40%)"></rect><rect width="1" height="1" x="15" y="8" fill="hsl(10, 75%, 40%)"></rect><rect width="1" height="1" x="16" y="8" fill="hsl(10, 75%, 40%)"></rect><rect width="1" height="1" x="3" y="9" fill="hsl(28, 100%, 71%)"></rect><rect width="1" height="1" x="4" y="9" fill="hsl(10, 75%, 40%)"></rect><rect width="1" height="1" x="5" y="9" fill="hsl(10, 75%, 40%)"></rect><rect width="1" height="1" x="6" y="9" fill="hsl(10, 75%, 40%)"></rect><rect width="1" height="1" x="7" y="9" fill="hsl(10, 75%, 40%)"></rect><rect width="1" height="1" x="8" y="9" fill="hsl(10, 75%, 40%)"></rect><rect width="1" height="1" x="9" y="9" fill="hsl(10, 75%, 40%)"></rect><rect width="1" height="1" x="10" y="9" fill="hsl(10, 75%, 40%)"></rect><rect width="1" height="1" x="11" y="9" fill="hsl(10, 75%, 40%)"></rect><rect width="1" height="1" x="12" y="9" fill="hsl(10, 75%, 40%)"></rect><rect width="1" height="1" x="13" y="9" fill="hsl(10, 75%, 40%)"></rect><rect width="1" height="1" x="14" y="9" fill="hsl(10, 75%, 40%)"></rect><rect width="1" height="1" x="15" y="9" fill="hsl(10, 75%, 40%)"></rect><rect width="1" height="1" x="16" y="9" fill="hsl(10, 75%, 40%)"></rect><rect width="1" height="1" x="3" y="10" fill="hsl(28, 100%, 71%)"></rect><rect width="1" height="1" x="4" y="10" fill="hsl(28, 100%, 71%)"></rect><rect width="1" height="1" x="5" y="10" fill="hsl(10, 75%, 40%)"></rect><rect width="1" height="1" x="6" y="10" fill="hsl(10, 75%, 40%)"></rect><rect width="1" height="1" x="7" y="10" fill="hsl(10, 75%, 40%)"></rect><rect width="1" height="1" x="8" y="10" fill="hsl(10, 75%, 40%)"></rect><rect width="1" height="1" x="9" y="10" fill="hsl(10, 75%, 40%)"></rect><rect width="1" height="1" x="10" y="10" fill="hsl(10, 75%, 40%)"></rect><rect width="1" height="1" x="11" y="10" fill="hsl(10, 75%, 40%)"></rect><rect width="1" height="1" x="12" y="10" fill="hsl(10, 75%, 40%)"></rect><rect width="1" height="1" x="13" y="10" fill="hsl(10, 75%, 40%)"></rect><rect width="1" height="1" x="14" y="10" fill="hsl(10, 75%, 40%)"></rect><rect width="1" height="1" x="15" y="10" fill="hsl(10, 75%, 40%)"></rect><rect width="1" height="1" x="16" y="10" fill="hsl(28, 100%, 71%)"></rect><rect width="1" height="1" x="3" y="11" fill="hsl(28, 100%, 71%)"></rect><rect width="1" height="1" x="4" y="11" fill="hsl(28, 100%, 71%)"></rect><rect width="1" height="1" x="6" y="11" fill="hsl(10, 75%, 40%)"></rect><rect width="1" height="1" x="7" y="11" fill="hsl(10, 75%, 40%)"></rect><rect width="1" height="1" x="8" y="11" fill="hsl(10, 75%, 40%)"></rect><rect width="1" height="1" x="9" y="11" fill="hsl(10, 75%, 40%)"></rect><rect width="1" height="1" x="10" y="11" fill="hsl(10, 75%, 40%)"></rect><rect width="1" height="1" x="11" y="11" fill="hsl(10, 75%, 40%)"></rect><rect width="1" height="1" x="12" y="11" fill="hsl(10, 75%, 40%)"></rect><rect width="1" height="1" x="14" y="11" fill="hsl(10, 75%, 40%)"></rect><rect width="1" height="1" x="15" y="11" fill="hsl(10, 75%, 40%)"></rect><rect width="1" height="1" x="16" y="11" fill="hsl(28, 100%, 71%)"></rect><rect width="1" height="1" x="3" y="12" fill="hsl(28, 100%, 71%)"></rect><rect width="1" height="1" x="4" y="12" fill="hsl(28, 100%, 71%)"></rect><rect width="1" height="1" x="6" y="12" fill="hsl(10, 75%, 40%)"></rect><rect width="1" height="1" x="7" y="12" fill="hsl(10, 75%, 40%)"></rect><rect width="1" height="1" x="8" y="12" fill="hsl(10, 75%, 40%)"></rect><rect width="1" height="1" x="9" y="12" fill="hsl(10, 75%, 40%)"></rect><rect width="1" height="1" x="10" y="12" fill="hsl(10, 75%, 40%)"></rect><rect width="1" height="1" x="11" y="12" fill="hsl(10, 75%, 40%)"></rect><rect width="1" height="1" x="12" y="12" fill="hsl(10, 75%, 40%)"></rect><rect width="1" height="1" x="15" y="12" fill="hsl(28, 100%, 71%)"></rect><rect width="1" height="1" x="16" y="12" fill="hsl(28, 100%, 71%)"></rect><rect width="1" height="1" x="17" y="12" fill="hsl(28, 100%, 71%)"></rect><rect width="1" height="1" x="3" y="13" fill="hsl(28, 100%, 71%)"></rect><rect width="1" height="1" x="4" y="13" fill="hsl(28, 100%, 71%)"></rect><rect width="1" height="1" x="6" y="13" fill="hsl(10, 75%, 40%)"></rect><rect width="1" height="1" x="7" y="13" fill="hsl(10, 75%, 40%)"></rect><rect width="1" height="1" x="8" y="13" fill="hsl(10, 75%, 40%)"></rect><rect width="1" height="1" x="9" y="13" fill="hsl(10, 75%, 40%)"></rect><rect width="1" height="1" x="10" y="13" fill="hsl(10, 75%, 40%)"></rect><rect width="1" height="1" x="11" y="13" fill="hsl(10, 75%, 40%)"></rect><rect width="1" height="1" x="12" y="13" fill="hsl(10, 75%, 40%)"></rect><rect width="1" height="1" x="16" y="13" fill="hsl(28, 100%, 71%)"></rect><rect width="1" height="1" x="17" y="13" fill="hsl(28, 100%, 71%)"></rect><rect width="1" height="1" x="3" y="14" fill="hsl(28, 100%, 71%)"></rect><rect width="1" height="1" x="4" y="14" fill="hsl(28, 100%, 71%)"></rect><rect width="1" height="1" x="6" y="14" fill="hsl(10, 75%, 40%)"></rect><rect width="1" height="1" x="7" y="14" fill="hsl(10, 75%, 40%)"></rect><rect width="1" height="1" x="8" y="14" fill="hsl(10, 75%, 40%)"></rect><rect width="1" height="1" x="9" y="14" fill="hsl(10, 75%, 40%)"></rect><rect width="1" height="1" x="10" y="14" fill="hsl(10, 75%, 40%)"></rect><rect width="1" height="1" x="11" y="14" fill="hsl(10, 75%, 40%)"></rect><rect width="1" height="1" x="12" y="14" fill="hsl(10, 75%, 40%)"></rect><rect width="1" height="1" x="16" y="14" fill="hsl(28, 100%, 71%)"></rect><rect width="1" height="1" x="17" y="14" fill="hsl(28, 100%, 71%)"></rect><rect width="1" height="1" x="18" y="14" fill="hsl(28, 100%, 71%)"></rect><rect width="1" height="1" x="3" y="15" fill="hsl(28, 100%, 71%)"></rect><rect width="1" height="1" x="4" y="15" fill="hsl(28, 100%, 71%)"></rect><rect width="1" height="1" x="6" y="15" fill="hsl(10, 75%, 40%)"></rect><rect width="1" height="1" x="7" y="15" fill="hsl(230, 55%, 40%)"></rect><rect width="1" height="1" x="8" y="15" fill="hsl(230, 55%, 40%)"></rect><rect width="1" height="1" x="9" y="15" fill="hsl(230, 55%, 40%)"></rect><rect width="1" height="1" x="10" y="15" fill="hsl(230, 55%, 40%)"></rect><rect width="1" height="1" x="11" y="15" fill="hsl(230, 55%, 40%)"></rect><rect width="1" height="1" x="12" y="15" fill="hsl(230, 55%, 40%)"></rect><rect width="1" height="1" x="17" y="15" fill="hsl(28, 100%, 71%)"></rect><rect width="1" height="1" x="18" y="15" fill="hsl(28, 100%, 71%)"></rect><rect width="1" height="1" x="3" y="16" fill="hsl(28, 100%, 71%)"></rect><rect width="1" height="1" x="4" y="16" fill="hsl(28, 100%, 71%)"></rect><rect width="1" height="1" x="6" y="16" fill="hsl(230, 55%, 40%)"></rect><rect width="1" height="1" x="7" y="16" fill="hsl(230, 55%, 40%)"></rect><rect width="1" height="1" x="8" y="16" fill="hsl(230, 55%, 40%)"></rect><rect width="1" height="1" x="9" y="16" fill="hsl(230, 55%, 40%)"></rect><rect width="1" height="1" x="10" y="16" fill="hsl(230, 55%, 40%)"></rect><rect width="1" height="1" x="11" y="16" fill="hsl(230, 55%, 40%)"></rect><rect width="1" height="1" x="12" y="16" fill="hsl(230, 55%, 40%)"></rect><rect width="1" height="1" x="6" y="17" fill="hsl(230, 55%, 40%)"></rect><rect width="1" height="1" x="7" y="17" fill="hsl(230, 55%, 40%)"></rect><rect width="1" height="1" x="8" y="17" fill="hsl(230, 55%, 40%)"></rect><rect width="1" height="1" x="10" y="17" fill="hsl(230, 55%, 40%)"></rect><rect width="1" height="1" x="11" y="17" fill="hsl(230, 55%, 40%)"></rect><rect width="1" height="1" x="12" y="17" fill="hsl(230, 55%, 40%)"></rect><rect width="1" height="1" x="6" y="18" fill="hsl(230, 55%, 40%)"></rect><rect width="1" height="1" x="7" y="18" fill="hsl(230, 55%, 40%)"></rect><rect width="1" height="1" x="8" y="18" fill="hsl(230, 55%, 40%)"></rect><rect width="1" height="1" x="10" y="18" fill="hsl(230, 55%, 40%)"></rect><rect width="1" height="1" x="11" y="18" fill="hsl(230, 55%, 40%)"></rect><rect width="1" height="1" x="12" y="18" fill="hsl(230, 55%, 40%)"></rect><rect width="1" height="1" x="6" y="19" fill="hsl(28, 100%, 71%)"></rect><rect width="1" height="1" x="7" y="19" fill="hsl(28, 100%, 71%)"></rect><rect width="1" height="1" x="8" y="19" fill="hsl(28, 100%, 71%)"></rect><rect width="1" height="1" x="10" y="19" fill="hsl(28, 100%, 71%)"></rect><rect width="1" height="1" x="11" y="19" fill="hsl(28, 100%, 71%)"></rect><rect width="1" height="1" x="12" y="19" fill="hsl(28, 100%, 71%)"></rect>
  </pattern></defs><rect width="100%" height="100%" fill="url(#pppixelate-pattern)"></rect></svg>